<?xml version="1.0" encoding="UTF-8"?>
<svg id="Layer_1" xmlns="http://www.w3.org/2000/svg" version="1.1" viewBox="0 0 543 524">
  <!-- Generator: Adobe Illustrator 29.1.0, SVG Export Plug-In . SVG Version: 2.1.0 Build 142)  -->
  <defs>
    <style>
      .st0 {
        fill: #010101;
      }
    </style>
  </defs>
  <g>
    <path d="M378,242c2.3-1.61,3.87-4.72,5.42-7.08,8.99-13.73,17.83-31.75,27.76-44.24,3.76-4.73,5.6-6.81,11.72-4.06,4.74,2.13,7.41,6.21,5.65,11.43-12.16,22.36-30.29,43.58-42.37,65.63-.54.99-1.57,2.38-1.79,3.33-.69,3.03,5.53,11.39,9.05,11.05,8.03-.78,26.77-38.47,31.75-46.35,2.34-3.7,3.25-6.16,8.3-6.17,5.96,0,8.54,5.01,7.03,10.5s-12.55,23.27-16.11,28.89c-8.92,14.08-24.11,38.59-44.11,26.27-2.34-1.44-5.37-5.83-7.69-5.14-1.72.52-13.4,22.47-16.18,25.88-5.64,6.91-14.34,2.96-14.44-5.35l21.55-38.56-3.06-12.02c-7.75,14.35-15.24,29.54-25.98,42.01-16.96,19.69-49.6,41.26-68.5,11.99-6.76,12.08-21.29,29.48-35.75,31.76-41.08,6.48-26.56-54.88-20.77-76.77,6.98-26.38,33.72-99.62,65.3-102.77,9.44-.94,16.63,7.27,17.21,16.31,1.6,25.03-30.38,72.45-46.03,91.95-8.18,10.19-22.02,20.99-24.7,33.3-2.51,11.55-.09,29.51,14.64,18.64,30.66-22.62,32.13-73.11,68.17-95.83,18.89-11.9,39.1-8.17,32.19,18.19-5.7,21.78-29.24,46.99-53.28,45.21-2.86,16.39,8.03,21.76,21.69,14.2,18.5-10.24,40.85-49.62,48.79-69.21,1.94-4.78,5.52-20.06,7.48-22.52,4.2-5.28,17.37-2.21,17.74,5.22.04.87-.71,1.54-.71,1.82v22.5ZM275.99,180c-2.49-2.89-16.45,17.56-17.41,19.08-12.34,19.55-20.24,41.76-26.57,63.92,11.51-13.77,23.16-30.05,31.51-45.98,2.62-5,15.59-33.4,12.47-37.02ZM290.01,274c12.99-1.99,26.31-18.14,30.46-30.02.54-1.55,2.73-7.44,0-7.98-1.64-.32-12.77,9.82-14.49,11.78-2.25,2.57-17.86,24.35-15.98,26.22Z"/>
    <path d="M78.58,368.58c-12.67,15.28-30.29,35.85-45.36,48.43-10.67,8.9-24.93-4.38-18.57-14.75,23.27-22.49,43.9-47.6,64.34-72.77.33-2.41-.64-1.28-2.08-1.09-6.93.94-25.64,6.81-30.95,5.17-5.96-1.84-8.4-15.12-5-20.12,2.12-3.12,13.6-4.47,17.82-5.18,13.83-2.36,27.97-2.84,41.8-5.2,27.86-34.84,53.55-71.42,78.88-108.12,3.75-5.63,19.82-1.37,21.34,3.76,1.71,5.75-2.92,13.35-4.5,19.08-11.17,40.52-18.82,84.59-10.01,126.44,1.35,6.39,6.14,12.75,3.2,19.76-2.45,5.86-16.36,8.02-20.51,2.55s-7.18-30.39-7.96-38.04c-.33-3.22,1.56-11.27-2.5-11.52l-43.49,5.55-36.44,46.06ZM161,301.01c1.78-20.57,4.87-41.03,9.99-61l-40.98,60.52c-.42,2.21.99,1.44,2.5,1.52,8.72.42,19.36-2.35,28.5-1.03Z"/>
    <path d="M529.74,132.25c6.55,6.98-6.36,14.66-8.78,20.21-12.03,27.57,22.16,61-.73,95.27-11.2,16.77-37.68,22.68-52.28,6.82-5.18-5.63-12.08-22.94-2.01-26.1,17.02-5.34,5.24,16.56,20.78,19.31,17.12,3.04,24.75-14.64,23.17-29.16-.25-2.33-3.62-17.06-4.38-18.62-.2-.42-1.18-1.23-1.5-.98-2.27,5.03-9.61,23.45-14.03,25.5-3.9,1.81-9.43-1.66-10.58-5.47-1.41-4.67,7.44-17.99,9.76-23.36,3.47-8.03,9.25-21.11,10.57-29.43,1.37-8.63-.3-13.05,4.24-21.76,3.76-7.22,18.33-20.13,25.76-12.22Z"/>
    <path d="M463,397c-.1,2.54,1.68,4.27.5,6.94-1.06,2.41-10.54,13.33-12.99,16.07-74.08,83.1-201.65,101.58-297.02,44-5.17-3.12-36.67-25.11-37.34-28.66-.37-1.93,4.04-5.05.35-7.33l-1.99,5.97c-1.15-.31-8.66-7.92-10.06-9.41-3.72-3.94-18.23-19.67-19.97-23.58-.68-1.53,2-3.65,1.52-4-4.16,2.87-13.82-14.43-13.71-15.52.08-.87,2.73-2.72,2.87-4.29l2.69-.02c29.71,52.11,82.57,91.88,140.94,106.53,121.61,30.53,246.47-42.74,277.92-163.49,3.06-11.75,3.77-24.1,6.58-35.42.98-3.96,3.61-8.35,4.47-12.53.22-1.06,1.18-5.29-.75-5.25l-3,7.99.14-9.34,1.47-1.61,3.28.84,2.09-2.89c.17,43.29-12.36,88.4-35.57,124.92-1.28,2.02-6.11,9.69-7.41,10.65-.65.48-3.11-2.16-5.01-.57Z"/>
    <path d="M441.59,85.44c17.38,15.95,44.04,49.43,52.22,71.3.39,1.03,2.45,11.04-.8,8.26-7.93-19.43-19.85-38.19-33.04-54.47-23.98-29.6-54.85-51.63-89.3-67.7-1.58-.74-8.2-2.72-8.5-3.06-.57-.67.04-2.23-.18-2.77-.08-.2-2.22,1.09-4.22.85-5.05-.61-14.75-5.09-20.56-6.56-50.83-12.86-85.4-9.12-135.21,3.31-13.6,3.4-23.78,8.25-36.68,15.23C79.28,96.43,30.14,182.26,37.01,281.49c.35,5.12,3.88,20.25,2.81,23.79-.29.94-2.41,3.12-2.8,2.72C14.46,192.99,79.77,76.37,188.75,35.25c88.53-33.4,183.82-13.13,252.84,50.18Z"/>
    <path d="M517.99,257.01c1.52,95.69-54.33,184.69-140.78,224.71-106.14,49.13-235.21,14.84-301.03-81.4-1.45-2.12-9.8-13.74-8.18-15.31,1.12-.06,1.99-.19,3.01.48,1.47.97,10.31,16.43,12.54,19.46,13.4,18.17,35.68,39.31,54.52,52.48,79.41,55.47,189.34,57.93,269.43,2.6l2.47,1.98c-1.19-4.55,5.35-6.79,8.91-9.6,59.97-47.47,95.4-114.03,95.13-191.87.33-1.85,1.81-3.79,3.97-3.52Z"/>
    <path d="M450.35,104.65c4.78,5.29,16.75,17.32,19.14,23.44.56,1.44.52,4.09-.45,5.45-4.85,2.29-11.46-10.58-14.09-13.75-38.54-46.44-89.51-76.72-149.99-85.3l.04-4.49c-3.16-.93-1.44,2.55-2.92,3.55-12.42.72-25.03-1.18-37.62-.6-15.41.71-30.21,5.75-44.06,6.96-2.11.18-2.76.67-2.4-1.91l3.1-.58,1.55-5.48c12.01-2.89,24.37-4.69,36.73-5.01,1.18.33.54,4.95,3.61,4.06l.44-4.06c.99-1.48,19.81-1.15,23.1-.98,64.26,3.21,121.15,31.52,163.81,78.69Z"/>
    <path d="M199,43.01l-1.04,3.45c-72.79,25.78-129.18,89.01-145.99,164.53l-5.82-2.08c-1.58-1.66,5.56-22.82,6.83-26.42,6.49-18.38,16.86-38.74,28.01-54.71,18.07-25.88,43.5-50.67,71.7-67.58,4.67-2.8,31.57-17.36,34.84-17.13,1.47.1,2.48,1.86,3.8,1.76,1.66-.13,4.81-3.04,7.66-1.82Z"/>
    <path d="M461.77,139.19c9.01-1.29,14.61,4.98,14.97,13.57.46,11.09-11.04,34.13-21.18,39.28-4.13,2.1-10.13,2.63-9.54-3.45.71-7.19,9.38-20.54,10.74-29.33,1.23-7.95-6.45-18.44,5.01-20.07Z"/>
    <path d="M220,129.99l-1-3c.06,1.63.21,3.17-.99,4.52-2.4,2.71-16.07,6.7-19.53,10.46l-2.16-4.51c.21-1.86,18.64-10.65,21.7-11.93,13.53-5.65,35.97-11.93,50.52-11.6,4.67.11,2.52.91,9,.11,17.17-2.11,49.9,8.41,65.47,16.43,2.73,1.4,14.92,7.7,14.98,9.97.04,1.52-1.37,3.5-2.51,4.53-26.57-19.98-60.11-26.97-93.04-25.02-14.61.86-28.55,5.94-42.46,10.03Z"/>
    <path d="M111,240.01c1.54,1.31-7.34,8.22-8.04,9.44-2.52,4.33,1.17,11.75,2.05,16.55l-14.36-5.75-12.63,6.75c.55-3.07,2.31-12.77,1-15.19-.65-1.19-11.46-8.42-10-9.8l13.98-2.52,5.02-12.49c2.34-2.15,7.23,10.87,8.98,11.51l14,1.5Z"/>
    <path d="M484,288.01l-8.85,10.72,2.85,14.27-13.41-5.01-12.57,7.02.83-14.27c-.43-2.61-11.62-8.72-9.84-10.72l12.98-2.52,6.52-13.46,7.49,12.49,14.01,1.49Z"/>
    <path d="M131.61,252.63l-3.6,4.36c-.16-19.88,5.33-43.21,14.61-60.87,1.62-3.08,2.71-7.08,6.37-5.12-.5-6.16,2.64-12.21,7-16.52,1.81-1.79-.13,4.15,3,2.51.3-1.67-.78-3.59-.48-5.12,1.06-5.24,32.06-33.72,33.47-31.87l.57,5.99c-29.23,20.57-49.94,52.73-57.32,87.75-1.27,6.05.08,13.66-3.62,18.89Z"/>
    <path d="M381.56,364.59l-21.08,18.4c-2.12.39-1.62-.79-1.29-2.29,1.59-7.22,16.08-17.05,21.8-23.5,18.31-20.66,31.07-46.76,35.02-74.21l2.98,2,3-8.99c-.49,5.82-.9,15.15-2.98,20.51-.96,2.47-3.99,3.49-3.99,3.98,0,.21,1.91,1.15,1.81,3.72-.13,3.47-5.85,16.56-7.66,20.47-6.86,14.8-16.75,27.91-27.61,39.91Z"/>
    <path d="M303.99,401c.2,7.13-8.11,7.53-13.51,7.98-26.8,2.24-55.71-2.24-79.83-14.13-5.13-2.53-15.25-6.09-13.64-12.85,1.41-1.47,10.28,5.17,12.32,6.17,29.06,14.32,62.78,20.25,94.67,12.83Z"/>
    <path d="M49,214c-.64,2.45,1.22,5.45,1.02,7.5-.23,2.32-5.92,7.79-5.03,13.01l3.04,1.01-2.06,31.03,4.05,37.46-7,1.01c-1.61-11.76-3.2-23.64-4.03-35.5-.21-2.99,1.83-.52,3.01-.5l1.01-7h-4.02c-.28-6.24,2.53-45,5.68-47.08,1.16-.77,2.93-.97,4.32-.93Z"/>
    <path d="M373.58,151.42c2.61,2.29,11.06,9.76,12.3,12.2,1.39,2.75.66,5.12,1.64,7.36.9,2.07,5.82,5.17,5.52,9.02,4.11-4.36,10.8,7.05,11,9.57.17,2.2-1.89,3.4-2.05,5.43-3.53-1.75-4.15-6.28-6.16-9.32-7.33-11.06-17.05-22.2-26.81-31.19-4.26-3.93-13.43-6.58-8.52-13.48,4.38,3.45,8.9,6.75,13.09,10.41Z"/>
    <path d="M357.99,378.01c-1.2,7.66-5.36,9.66-11.32,13.17-12.88,7.58-27.45,11.63-41.66,15.83l.57-6.12,27.1-8.7,25.31-14.18Z"/>
    <path d="M489.99,179c-2.51-3.24-9.25-15.21-9.82-18.75-.54-3.29,1.94-9.28.85-13.24l11.55,22.48-2.57,9.52Z"/>
    <path d="M158.99,353l-17.56-27.95c-.88-1.2.01-2.65,1.16-2.98,5.08-1.48,5.44,4.74,7.22,7.63,4.6,7.46,10.37,13.72,9.18,23.31Z"/>
    <path d="M215.99,34.01c-.09,5.36-.49,7.56-5.97,8.56-4.77.87-2.07-1.16-5.7-3.43l-6.32.85c1.19-2.4,17.32-6.66,17.99-5.98Z"/>
    <path d="M193.99,385c-1.84-.52-15.93-11.07-14.99-11.99,8.43-3.24,13.84,4.24,14.99,11.99Z"/>
    <path d="M502.99,232.99l-3.03-13.55,2.05-7.44c2.01.38,1.63,2.12,1.98,3.5,1.56,6.15,1.37,11.59-1.01,17.49Z"/>
    <path d="M48.86,337.14l3.13,15.86c-2.86.54-1.61-.78-2.26-2.19-1.48-3.19-3.87-9.13-4.63-12.43-.55-2.39,2.29-1.34,3.76-1.24Z"/>
    <path d="M416.98,236c-2.42.33-1.58-.02-2.09-1.38-1.65-4.39-1.37-9.22,3.09-11.61,1.93,4.86.92,8.44-1,12.99Z"/>
    <path d="M59.99,340c.59,3.15-1.48,6.72-4.98,6.99l-.57-5,5.56-1.99Z"/>
  </g>
  <g>
    <path d="M224.53,369.85v-15.87h9.92v1.88h-7.81v4.35h7.28v1.88h-7.28v5.9h7.81v1.88h-9.92Z"/>
    <path d="M241.2,370.14c-1.15,0-2.13-.12-2.94-.36s-1.57-.53-2.28-.88v-2.64h.15c.7.65,1.49,1.16,2.37,1.52.88.36,1.73.54,2.55.54,1.17,0,2.05-.24,2.64-.73.6-.49.9-1.13.9-1.92,0-.63-.16-1.15-.47-1.55-.31-.4-.81-.69-1.49-.88-.49-.14-.94-.26-1.34-.35-.41-.09-.91-.22-1.52-.37-.55-.14-1.04-.32-1.47-.54s-.82-.51-1.15-.86c-.33-.35-.58-.76-.76-1.23s-.27-1.02-.27-1.64c0-1.29.5-2.36,1.5-3.24,1-.87,2.28-1.31,3.84-1.31.89,0,1.73.09,2.52.27s1.53.43,2.2.76v2.53h-.16c-.5-.46-1.15-.87-1.94-1.21-.79-.34-1.62-.52-2.48-.52-.98,0-1.77.23-2.38.69-.6.46-.91,1.06-.91,1.81,0,.67.18,1.21.53,1.61.35.4.87.69,1.55.87.45.12,1,.26,1.64.41.65.15,1.18.29,1.61.42,1.09.33,1.89.84,2.4,1.51.5.67.76,1.51.76,2.49,0,.62-.13,1.23-.38,1.83-.25.6-.61,1.12-1.06,1.54-.51.46-1.09.82-1.73,1.07-.64.25-1.45.37-2.42.37Z"/>
    <path d="M252.65,369.85v-14h-5.33v-1.88h12.77v1.88h-5.33v14h-2.11Z"/>
    <path d="M271.47,369.85h-2.55v-3.04h2.55v3.04Z"/>
    <path d="M291.29,369.85h-9.8v-2.23c.7-.67,1.37-1.31,1.99-1.92.62-.61,1.24-1.25,1.83-1.91,1.21-1.33,2.03-2.39,2.47-3.19.44-.8.66-1.63.66-2.48,0-.44-.07-.83-.21-1.16s-.33-.61-.57-.83c-.25-.21-.54-.37-.86-.48-.33-.11-.69-.16-1.08-.16s-.76.05-1.15.14-.76.21-1.11.36c-.3.12-.59.27-.86.44-.28.17-.5.32-.67.44h-.12v-2.26c.44-.22,1.05-.44,1.84-.65.79-.21,1.53-.31,2.23-.31,1.48,0,2.64.39,3.48,1.18.84.79,1.26,1.85,1.26,3.19,0,.62-.07,1.19-.22,1.72-.15.53-.35,1.01-.6,1.46-.26.46-.58.92-.95,1.38s-.76.9-1.17,1.34c-.67.72-1.41,1.48-2.23,2.26-.82.78-1.48,1.4-1.97,1.85h7.8v1.82Z"/>
    <path d="M303.29,361.91c0,2.85-.41,4.94-1.24,6.27-.83,1.33-2.11,2-3.83,2s-3.03-.68-3.85-2.04c-.82-1.36-1.23-3.43-1.23-6.21s.41-4.96,1.24-6.28c.83-1.33,2.11-1.99,3.83-1.99s3.03.69,3.85,2.06c.82,1.37,1.23,3.44,1.23,6.19ZM300.56,366.75c.21-.53.35-1.19.44-1.99s.13-1.75.13-2.85-.04-2.03-.13-2.84c-.09-.8-.23-1.47-.45-2-.21-.54-.51-.95-.88-1.23-.37-.28-.86-.42-1.46-.42s-1.08.14-1.46.42c-.38.28-.68.7-.9,1.25-.21.54-.36,1.22-.44,2.05s-.12,1.76-.12,2.79c0,1.11.03,2.04.1,2.78.07.75.21,1.42.44,2,.21.55.5.97.88,1.26.38.29.88.44,1.49.44s1.07-.14,1.46-.42c.38-.28.68-.7.89-1.25Z"/>
    <path d="M314.32,369.85h-7.74v-1.62h2.88v-10.64h-2.88v-1.45c1.09,0,1.89-.15,2.4-.46.52-.31.8-.89.87-1.75h1.65v14.31h2.81v1.62Z"/>
    <path d="M316.8,359.14c0-.82.13-1.56.4-2.24.27-.68.63-1.26,1.09-1.75.44-.47.98-.83,1.62-1.1s1.28-.39,1.94-.39c.73,0,1.39.12,1.99.37.59.25,1.11.6,1.54,1.06.55.58.97,1.35,1.27,2.29.3.95.45,2.14.45,3.58,0,1.31-.15,2.56-.44,3.74s-.73,2.15-1.31,2.93c-.61.83-1.35,1.45-2.2,1.89-.86.43-1.91.65-3.17.65-.28,0-.59-.02-.91-.05-.32-.03-.62-.09-.9-.18v-2.04h.11c.18.1.45.2.83.29.38.09.76.14,1.15.14,1.39,0,2.49-.46,3.28-1.38s1.25-2.23,1.35-3.93c-.57.38-1.11.66-1.63.84s-1.07.27-1.68.27-1.13-.06-1.61-.19c-.48-.13-.97-.38-1.46-.75-.57-.43-1-.98-1.29-1.65-.29-.67-.44-1.47-.44-2.4ZM324.96,360.5c0-1.08-.1-1.96-.3-2.64-.2-.68-.47-1.2-.82-1.57-.31-.34-.63-.58-.95-.7s-.67-.19-1.06-.19c-.87,0-1.57.31-2.09.94-.52.62-.78,1.53-.78,2.72,0,.67.09,1.22.26,1.65s.45.81.83,1.12c.27.22.58.37.92.44.34.07.71.11,1.1.11.46,0,.95-.08,1.47-.24s.98-.37,1.38-.63c0-.11.02-.25.03-.42.01-.17.02-.37.02-.58Z"/>
  </g>
  <g>
    <path d="M118.57,388.6c-.88-1.21-1.51-2.45-1.88-3.74-.37-1.28-.44-2.56-.21-3.84.23-1.28.77-2.54,1.63-3.78.86-1.24,2.06-2.43,3.62-3.57,1.54-1.13,3.03-1.9,4.46-2.31s2.78-.55,4.05-.41c1.27.13,2.5.56,3.67,1.29,1.17.73,2.19,1.69,3.06,2.88.71.97,1.25,2,1.64,3.1.38,1.1.66,2.13.81,3.1l-3.32,2.43-.13-.17c.02-.34.03-.76.02-1.26s-.07-1.08-.17-1.72c-.09-.56-.26-1.18-.51-1.85-.25-.67-.56-1.27-.94-1.78-1.12-1.53-2.61-2.34-4.45-2.42-1.84-.08-3.82.66-5.95,2.21-2.08,1.52-3.37,3.16-3.88,4.91-.5,1.75-.17,3.42,1,5.02.71.97,1.58,1.74,2.62,2.32,1.04.58,2.12.98,3.24,1.19l.13.17-3.33,2.43c-.35-.19-.79-.44-1.3-.74-.52-.3-.95-.59-1.31-.88-.52-.4-.96-.77-1.33-1.11-.37-.34-.79-.83-1.25-1.46Z"/>
    <path d="M147.06,394.14l-.13-.15c-.12-.26-.28-.51-.46-.75-.19-.24-.42-.53-.71-.85-.65-.74-1.46-1.34-2.43-1.79-.97-.45-2.06-.72-3.27-.82l-11.63,10.23-2.42-2.76,16.38-14.41,2.42,2.76-2.44,2.14c1.78.22,3.18.55,4.2.98,1.02.43,1.85.99,2.47,1.69.25.28.43.5.54.66.11.15.23.33.35.54l-2.88,2.53Z"/>
    <path d="M146.72,415.4c-.37-.04-.87-.1-1.51-.15-.64-.06-1.21-.16-1.71-.31-.71-.2-1.34-.44-1.91-.73-.57-.28-1.25-.8-2.04-1.55-.65-.62-1.16-1.33-1.51-2.13-.35-.8-.54-1.63-.57-2.5-.01-.84.15-1.7.5-2.58.35-.88.86-1.67,1.53-2.38,1.04-1.1,2.15-1.81,3.35-2.15,1.19-.33,2.5-.25,3.94.24,1.27.43,2.59,1.14,3.95,2.13,1.36.99,2.77,2.11,4.25,3.36l.48-.51c.59-.62.97-1.22,1.15-1.78.17-.56.19-1.11.04-1.64-.14-.54-.42-1.08-.84-1.61-.43-.54-.9-1.05-1.42-1.54-.62-.58-1.43-1.17-2.43-1.78-1.01-.6-2.09-1.12-3.26-1.56l-.16-.15,2.56-2.71c.63.32,1.48.83,2.56,1.53,1.08.7,2.07,1.47,2.97,2.32,1.09,1.03,1.93,1.98,2.51,2.86s.97,1.82,1.14,2.83c.17.98.06,1.95-.3,2.91-.37.96-1.02,1.94-1.96,2.93l-10.25,10.84-2.65-2.51,1.6-1.69ZM148.81,413.19l4.16-4.4c-.69-.54-1.56-1.22-2.63-2.04s-1.98-1.42-2.75-1.8c-.92-.45-1.82-.67-2.71-.66-.89.01-1.71.42-2.47,1.22-.86.91-1.25,1.84-1.18,2.78.07.95.6,1.89,1.59,2.82.84.8,1.78,1.33,2.8,1.61,1.03.28,2.09.44,3.18.47Z"/>
    <path d="M178.68,409.84l-.15-.12c-.18-.29-.48-.67-.9-1.14-.41-.47-.81-.85-1.19-1.14-1.22-.96-2.3-1.36-3.25-1.22-.95.14-1.98.93-3.11,2.36l-.46.58,4.78,3.75-1.88,2.4-4.69-3.68-11.59,14.76-2.89-2.27,11.59-14.76-1.95-1.53,1.88-2.4,1.95,1.53.45-.57c1.62-2.07,3.36-3.25,5.19-3.55,1.84-.3,3.68.29,5.54,1.74.53.42,1.03.86,1.5,1.32.47.46.88.89,1.25,1.29l-2.07,2.64Z"/>
    <path d="M169.41,436.4c-1.66-1.12-2.64-2.47-2.93-4.04-.29-1.57.26-3.38,1.63-5.41l6.77-10.01-2.05-1.39,1.71-2.52,2.05,1.39,3.51-5.19,3.04,2.06-3.51,5.19,5.6,3.79-1.71,2.52-5.6-3.79-5.81,8.59c-.62.92-1.08,1.63-1.38,2.15-.3.52-.49,1.07-.57,1.64-.07.5.03.99.32,1.45s.77.94,1.48,1.41c.5.33,1.02.59,1.59.76.56.17.98.27,1.25.31l.18.12-1.85,2.73c-.68-.22-1.35-.49-2-.8s-1.22-.63-1.72-.96Z"/>
    <path d="M222.33,449.08c-1.26,3.34-3.08,5.72-5.47,7.14-2.39,1.42-4.8,1.68-7.24.76-1.11-.42-2-.91-2.69-1.48-.68-.57-1.32-1.23-1.91-1.98l-.58.87-3.22-1.21,10.72-28.44,3.44,1.3-3.83,10.16c1.16-.45,2.34-.75,3.54-.88,1.2-.13,2.45.05,3.73.53,2.3.87,3.77,2.48,4.4,4.82s.33,5.15-.9,8.42ZM218.68,448.02c.92-2.44,1.24-4.43.98-5.97s-1.22-2.62-2.87-3.24c-.94-.35-1.97-.49-3.09-.41-1.12.08-2.2.31-3.23.68l-4.41,11.7c.7.75,1.36,1.34,1.96,1.77.6.43,1.31.8,2.11,1.1,1.75.66,3.37.56,4.83-.31,1.47-.87,2.71-2.64,3.72-5.32Z"/>
    <path d="M239.56,446.79l-.19-.05c-.24-.15-.51-.27-.8-.37-.29-.1-.64-.2-1.06-.31-.96-.25-1.96-.3-3.02-.14s-2.11.54-3.17,1.14l-3.98,14.97-3.55-.94,5.61-21.08,3.55.94-.83,3.13c1.6-.8,2.95-1.31,4.03-1.52,1.09-.22,2.09-.2,2.99.04.36.1.64.18.81.25s.37.15.59.25l-.98,3.7Z"/>
    <path d="M248.49,467.07c-3.43-.57-5.93-1.97-7.51-4.22-1.58-2.25-2.07-5.15-1.48-8.71.58-3.51,1.96-6.15,4.14-7.92,2.18-1.77,4.75-2.41,7.72-1.92,1.34.22,2.49.61,3.45,1.16.96.56,1.76,1.31,2.4,2.26.64.95,1.06,2.05,1.27,3.31.21,1.26.18,2.75-.1,4.47l-.32,1.97-14.92-2.46c-.41,2.5-.1,4.52.94,6.05s2.67,2.48,4.89,2.85c.8.13,1.59.17,2.39.12.79-.05,1.52-.17,2.19-.35.7-.19,1.3-.38,1.8-.58.5-.2.91-.4,1.25-.6l.21.03-.65,3.95c-.45.1-1.01.22-1.68.37-.67.15-1.27.25-1.79.31-.74.08-1.4.12-1.99.13-.59,0-1.32-.06-2.19-.2ZM254.99,454.1c.14-.98.16-1.84.07-2.58-.09-.74-.29-1.39-.59-1.94-.33-.61-.81-1.11-1.42-1.5-.62-.39-1.41-.67-2.39-.83-.96-.16-1.81-.15-2.53.03s-1.41.5-2.05.96c-.63.48-1.15,1.03-1.54,1.67-.4.64-.71,1.41-.94,2.31l11.39,1.88Z"/>
    <path d="M289.47,447.49l-6.09,21.66-3.4-.09-4.89-16.95-5.73,16.67-3.38-.09-5.01-21.96,3.83.1,3.4,16.99,5.62-16.75,3.03.08,4.87,17.03,4.07-16.79,3.69.1Z"/>
    <path d="M295.98,442.83l-4.17.33-.3-3.8,4.17-.33.3,3.8ZM297.71,468.24l-3.66.29-1.7-21.75,3.66-.29,1.7,21.75Z"/>
    <path d="M321.52,464.9l-3.62.6-2.02-12.26c-.16-.99-.36-1.9-.6-2.74s-.53-1.49-.89-1.96c-.38-.49-.86-.82-1.43-1-.57-.18-1.31-.19-2.22-.04-.9.15-1.79.54-2.67,1.18s-1.71,1.42-2.49,2.34l2.65,16.07-3.62.6-3.55-21.53,3.62-.6.39,2.39c.92-1.14,1.86-2.06,2.83-2.74.97-.69,2.04-1.13,3.21-1.32,2.12-.35,3.89.07,5.32,1.27,1.42,1.2,2.36,3.12,2.79,5.76l2.31,13.97Z"/>
    <path d="M330.43,466.38c.27.03.66.06,1.17.09.51.03,1.08.04,1.71.02.7-.03,1.33-.07,1.91-.13.58-.06,1.19-.19,1.84-.38,1.09-.32,1.97-.73,2.64-1.24.67-.51,1.14-1.08,1.42-1.72.25-.63.36-1.31.32-2.03-.04-.72-.18-1.51-.43-2.38l-.54-1.84c-.71,1.1-1.46,1.99-2.26,2.65-.8.66-1.88,1.19-3.26,1.6-2.39.7-4.55.37-6.48-.99-1.93-1.36-3.39-3.7-4.36-7.02-.51-1.74-.72-3.35-.63-4.83s.41-2.82.96-4c.52-1.13,1.25-2.1,2.18-2.9.93-.8,1.97-1.37,3.12-1.71,1.09-.32,2.06-.47,2.93-.44.87.02,1.77.15,2.71.39l-.06-.96,3.32-.97,5.45,18.55c1.04,3.55,1.03,6.38-.03,8.5-1.06,2.12-3.18,3.64-6.37,4.58-1.02.3-2.09.53-3.21.68s-2.18.23-3.18.22l-1.08-3.67.19-.05ZM339.62,453.87l-3.38-11.49c-1-.17-1.9-.23-2.69-.2s-1.56.16-2.3.38c-1.79.52-3,1.59-3.64,3.21-.64,1.61-.6,3.64.12,6.09.68,2.32,1.59,3.98,2.73,4.96s2.58,1.22,4.33.7c.91-.27,1.8-.72,2.66-1.37.86-.65,1.58-1.41,2.17-2.29Z"/>
    <path d="M375.18,445.7c-1.69.88-3.38,1.41-5.09,1.58-1.71.17-3.37-.03-4.98-.62-1.61-.58-3.14-1.56-4.58-2.94-1.44-1.38-2.73-3.15-3.86-5.32-1.13-2.16-1.83-4.18-2.12-6.07-.29-1.89-.22-3.71.21-5.44.42-1.69,1.18-3.21,2.28-4.55,1.09-1.34,2.51-2.47,4.25-3.38.87-.45,1.71-.81,2.53-1.08s1.61-.47,2.36-.61c.64-.12,1.33-.2,2.04-.24.72-.04,1.44-.06,2.17-.04l2.16,4.14-.28.14c-.44-.12-1.01-.25-1.68-.4-.68-.14-1.46-.23-2.34-.26-.84-.01-1.71.07-2.61.24-.89.17-1.85.52-2.86,1.05-1.1.57-2.02,1.34-2.76,2.3-.75.96-1.26,2.08-1.54,3.34-.27,1.26-.26,2.66.03,4.19.29,1.54.87,3.14,1.73,4.8.92,1.77,1.93,3.17,3.02,4.23s2.24,1.82,3.43,2.32c1.16.48,2.34.68,3.54.61,1.2-.07,2.33-.39,3.42-.96.99-.52,1.85-1.12,2.56-1.8.72-.68,1.31-1.38,1.77-2.09.45-.69.81-1.34,1.07-1.96s.46-1.13.59-1.53l.26-.14,2.13,4.09c-.43.56-.83,1.09-1.2,1.6-.38.5-.86,1.06-1.46,1.66-.62.63-1.22,1.18-1.8,1.64-.58.46-1.38.96-2.4,1.5Z"/>
    <path d="M396.16,418.81c2.09,3.02,2.98,5.85,2.66,8.5-.32,2.65-1.68,4.82-4.1,6.49-2.49,1.73-5.04,2.24-7.65,1.53s-4.92-2.51-6.93-5.43c-2.08-3-2.95-5.83-2.63-8.51.32-2.68,1.69-4.85,4.09-6.52,2.42-1.68,4.93-2.19,7.53-1.55,2.6.64,4.94,2.47,7.03,5.48ZM393.05,420.96c-1.61-2.32-3.23-3.75-4.86-4.3-1.63-.54-3.22-.27-4.79.81-1.57,1.09-2.39,2.5-2.46,4.21-.07,1.72.7,3.74,2.31,6.06,1.56,2.25,3.16,3.66,4.82,4.23,1.66.57,3.27.31,4.84-.78,1.55-1.08,2.36-2.48,2.42-4.21.06-1.73-.7-3.74-2.29-6.03Z"/>
    <path d="M410.6,420.82l-3.58,2.99-3.57-4.27,3.58-2.99,3.57,4.27Z"/>
    <path d="M415.56,408.83l4.69,13.1-2.09,1.94-6.18-11.72,3.58-3.32Z"/>
    <path d="M435.58,395.65l-11.32,12.49-21.55-19.53,2.6-2.87,19,17.22,8.72-9.62,2.55,2.31Z"/>
    <path d="M442.48,387.1c-1.21,1.6-2.6,2.51-4.19,2.71s-3.36-.43-5.32-1.91l-9.65-7.28-1.49,1.98-2.43-1.83,1.49-1.98-5.01-3.77,2.21-2.93,5.01,3.77,4.07-5.4,2.43,1.83-4.07,5.4,8.28,6.24c.88.67,1.58,1.16,2.08,1.49.5.33,1.04.55,1.61.65.5.1.99.02,1.47-.24.48-.26.97-.72,1.48-1.4.36-.48.64-.99.84-1.55.2-.55.32-.96.38-1.23l.13-.17,2.64,1.99c-.26.67-.56,1.32-.9,1.95-.34.63-.69,1.19-1.05,1.67Z"/>
    <path d="M455.93,365.64l-1.92,3.13-1.9-1.16c.11.74.19,1.37.24,1.89.05.52.04,1.08-.03,1.7-.06.57-.18,1.13-.36,1.68-.18.55-.46,1.14-.84,1.77-.62,1.01-1.4,1.82-2.35,2.42s-2.01.96-3.19,1.06c-1.2.11-2.5-.04-3.91-.45-1.41-.41-2.9-1.09-4.46-2.04-1.63-1-2.92-2.08-3.85-3.23s-1.62-2.37-2.05-3.66c-.4-1.17-.53-2.38-.4-3.62.13-1.24.51-2.39,1.16-3.45.57-.93,1.17-1.68,1.8-2.24.63-.56,1.39-1.09,2.29-1.6l-8.06-4.94,1.92-3.13,25.92,15.87ZM449.48,366l-10.73-6.57c-.85.55-1.54,1.08-2.06,1.61-.52.53-1,1.15-1.45,1.87-.99,1.61-1.16,3.24-.51,4.89.65,1.65,2.11,3.17,4.39,4.56,2.19,1.34,4.08,2.01,5.66,2.03,1.59.01,2.86-.75,3.8-2.3.5-.82.82-1.76.96-2.82s.11-2.15-.07-3.27Z"/>
  </g>
  <g>
    <path class="st0" d="M86.4,197.98l2.71-6.73c1.95-4.84,4.99-6.33,9.39-4.56l1.13.46c3.86,1.56,4.49,3.48,4.46,5.03,1.07-1.1,2.91-2.6,6.88-1l2.27.91c4.97,2,6.59,5.07,4.5,10.27l-2.86,7.09-28.47-11.48ZM100.09,196.32c.74-1.85.41-2.72-1.77-3.6l-1.47-.59c-1.82-.74-2.89-.48-3.58,1.25l-.41,1.03,6.89,2.78.35-.87ZM112.74,202.43l.44-1.1c.79-1.95.07-2.78-2.04-3.63l-2.61-1.05c-2.21-.89-3.36-.75-4.27,1.5l-.3.74,8.78,3.54Z"/>
    <path class="st0" d="M112.6,181.59l11.8,6.22-2.75,5.22-27.16-14.31,3.57-6.78c2.4-4.55,5.58-5.75,10.33-3.25l.98.51c3.87,2.04,4.21,4.19,4.14,5.65,1.71-1.26,3.37-1.4,7.15.6,2.62,1.38,6.57,3.51,8.11,4.03l-2.66,5.05c-1.41-.31-4.93-2.2-8.39-4.02-3.06-1.61-3.76-1.53-4.81.45l-.32.62ZM108.49,179.41l.34-.65c.92-1.74.74-2.75-1.79-4.08l-1.31-.69c-1.82-.96-2.92-1.07-3.93.85l-.43.82,7.12,3.75Z"/>
    <path class="st0" d="M125.61,159.55l-3.47,5.29,7,4.59,4.07-6.21,3.95,3.44-6.92,10.56-25.68-16.82,6.89-10.52,4.37,2.86-3.65,5.58,5.63,3.69,3.47-5.29,4.34,2.84Z"/>
    <path class="st0" d="M139.86,162.83l-25.84-16.93,3.97-4.78c4.5,3.17,12.9,9.33,16.72,12.31l.13-.16c-4.23-4.31-10.19-10.22-14.67-14.78l3.24-3.91c5.02,3.34,11.82,8.07,17.1,11.7l.15-.18c-4.23-3.86-11.44-10.57-15.09-14.12l3.72-4.48,21.15,22.58-3.91,4.71c-4.53-2.98-9.59-6.18-14.82-9.81l-.13.16c4.43,4.44,8.36,8.9,12.22,12.95l-3.94,4.75Z"/>
    <path class="st0" d="M137.02,120.1l21.65,21.76-4.18,4.16-21.65-21.76,4.18-4.16Z"/>
    <path class="st0" d="M160.96,139.48l-19.82-23.44,4.99-4.22c3.16,2.23,14.49,10.86,15.55,11.73l.11-.09c-2.89-2.91-6.65-7.04-9.42-10.31l-3.26-3.85,4.19-3.54,19.82,23.44-5.03,4.26c-2.37-1.82-15.19-11.78-15.98-12.4l-.12.1c2.51,2.61,6.59,7.16,9.71,10.84l3.39,4-4.11,3.48Z"/>
    <path class="st0" d="M188.18,118.8l-3.67,2.49c-.42-.37-1.11-1.22-1.51-1.73.41,2.33-.9,3.91-2.47,4.98-3.95,2.68-7.06.5-9.88-3.65l-8.12-11.95c-2.65-3.89-3.22-8.21,1.62-11.5,5.85-3.97,9.33-.12,11.07,2.44l.78,1.14-4.92,3.34-.95-1.4c-.84-1.23-1.76-2.27-3.12-1.35-1.12.76-.98,1.86.15,3.51l8.84,13.02c1.17,1.73,2.16,1.98,3.13,1.32,1.19-.81.97-2.01-.45-4.09l-2.47-3.64-1.68,1.14-2.8-4.12,6.58-4.47,9.85,14.51Z"/>
    <path class="st0" d="M205.14,81.95l-4.17,1.61-1.88-4.87,13.87-5.35,1.88,4.87-4.2,1.62,9.16,23.77-5.5,2.12-9.16-23.77Z"/>
    <path class="st0" d="M217.28,71.89l5.7-1.58,3.16,11.38,3.71-1.03-3.16-11.39,5.73-1.59,8.22,29.58-5.73,1.59-3.66-13.18-3.71,1.03,3.66,13.18-5.7,1.58-8.22-29.58Z"/>
    <path class="st0" d="M253.38,81.21l-6.23,1.09,1.45,8.24,7.31-1.28.2,5.23-12.43,2.18-5.3-30.23,12.38-2.17.9,5.14-6.56,1.15,1.16,6.63,6.23-1.09.9,5.11Z"/>
    <path class="st0" d="M281.55,62.27l.5,30.69-5.89.1-.5-30.69,5.89-.1Z"/>
    <path class="st0" d="M302.02,84.45c.43-4.73,1.09-11.44,1.5-15.18h-.16c-1.2,6.04-3.67,18.3-5.09,24.66l-4.99-.45c-.07-6.75-.24-19.47-.36-25.25l-.19-.02c-.25,3.6-.7,10.24-1.18,15.5l-.87,9.52-5.33-.49,2.78-30.57,8.44.77c.27,5.88.47,13.6.44,17.77h.13c.87-4.37,2.47-10.7,4.02-17.35l8.4.76-2.78,30.57-5.66-.51.89-9.74Z"/>
    <path class="st0" d="M316.21,89.28l-2.26,6.99-5.89-1.26,10.65-29.11,8.61,1.84-2.06,30.94-6.01-1.28.7-7.32-3.74-.8ZM320.55,84.89c.39-3.93,1.04-9.9,1.37-12.84l-.23-.05c-.55,2.07-2.7,8.67-3.89,12.3l2.75.59Z"/>
    <path class="st0" d="M341.39,103.88l-4.22-1.37c.03-.55.28-1.62.44-2.25-1.59,1.75-3.64,1.69-5.45,1.11-4.54-1.47-4.72-5.27-3.18-10.04l4.46-13.73c1.45-4.48,4.51-7.58,10.08-5.77,6.72,2.18,5.81,7.29,4.86,10.24l-.43,1.31-5.65-1.83.52-1.61c.46-1.42.71-2.78-.85-3.29-1.29-.42-2.06.37-2.68,2.27l-4.85,14.96c-.64,1.99-.24,2.92.88,3.29,1.37.44,2.18-.47,2.95-2.87l1.36-4.19-1.93-.63,1.54-4.74,7.57,2.46-5.41,16.68Z"/>
    <path class="st0" d="M361.52,79.08l-11.77,28.35-5.44-2.26,11.77-28.35,5.45,2.26Z"/>
    <path class="st0" d="M352.82,108.62l14.03-27.3,5.81,2.99c-.85,3.78-4.46,17.55-4.86,18.86l.13.07c1.58-3.78,3.94-8.84,5.9-12.65l2.3-4.49,4.88,2.51-14.03,27.3-5.86-3.01c.77-2.89,5.04-18.55,5.32-19.51l-.14-.07c-1.45,3.32-4.08,8.83-6.28,13.12l-2.4,4.66-4.79-2.46Z"/>
    <path class="st0" d="M378.07,114.28l-4.64,5.7-5.04-3.3,20.45-23.3,7.36,4.82-13.1,28.11-5.14-3.37,3.3-6.57-3.2-2.1ZM383.71,111.75c1.79-3.52,4.55-8.86,5.92-11.47l-.2-.13c-1.26,1.73-5.65,7.11-8.07,10.06l2.35,1.54Z"/>
    <path class="st0" d="M401.03,108.14l-3.52-2.75,3.22-4.11,11.71,9.16-3.21,4.11-3.54-2.77-15.69,20.07-4.64-3.63,15.69-20.07Z"/>
    <path class="st0" d="M419.72,117.01l-20.53,22.82-4.38-3.94,20.53-22.82,4.38,3.94Z"/>
    <path class="st0" d="M428.65,137.74l-10.32,9.81c-4.42,4.2-8.28,3.92-11.98.03-3.51-3.69-3.37-7.43.95-11.54l10.48-9.96c4.3-4.08,8.42-3.5,11.67-.08,3.28,3.45,3.64,7.52-.8,11.74ZM422.26,130.06l-11.37,10.81c-1.38,1.31-1.64,2.46-.73,3.42.95,1,2.03.83,3.49-.56l11.38-10.82c1.39-1.32,1.74-2.38.71-3.46-.87-.91-2-.79-3.48.61Z"/>
    <path class="st0" d="M414.03,155.19l24.35-18.69,3.98,5.18c-2.38,3.05-11.53,13.96-12.45,14.98l.09.11c3.04-2.75,7.34-6.31,10.74-8.92l4-3.07,3.34,4.35-24.35,18.69-4.01-5.23c1.93-2.28,12.48-14.62,13.14-15.37l-.1-.13c-2.73,2.38-7.46,6.24-11.29,9.18l-4.16,3.19-3.28-4.27Z"/>
  </g>
</svg>
